<svg width="25" height="24" viewBox="0 0 25 24" fill="none" xmlns="http://www.w3.org/2000/svg">
<g clip-path="url(#clip0_1_1548)">
<path d="M24.4946 12.2247C24.4946 11.2414 24.413 10.5239 24.2362 9.77979H12.7451V14.2178H19.4901C19.3542 15.3207 18.6199 16.9816 16.988 18.0977L16.9651 18.2463L20.5984 20.9965L20.8501 21.021C23.1619 18.9349 24.4946 15.8654 24.4946 12.2247Z" fill="#F5F5F5"/>
<path d="M12.7451 23.9173C16.0496 23.9173 18.8238 22.8543 20.8501 21.0206L16.988 18.0973C15.9545 18.8016 14.5673 19.2932 12.7451 19.2932C9.50859 19.2932 6.76162 17.2071 5.7824 14.3237L5.63887 14.3356L1.86093 17.1925L1.81152 17.3267C3.82415 21.2332 7.95824 23.9173 12.7451 23.9173Z" fill="#F5F5F5"/>
<path d="M5.78318 14.3238C5.5248 13.5797 5.37527 12.7824 5.37527 11.9586C5.37527 11.1347 5.5248 10.3375 5.76959 9.59342L5.76274 9.43494L1.93746 6.53223L1.8123 6.59039C0.982805 8.21149 0.506836 10.0319 0.506836 11.9586C0.506836 13.8853 0.982805 15.7056 1.8123 17.3267L5.78318 14.3238Z" fill="#F5F5F5"/>
<path d="M12.7451 4.62403C15.0433 4.62403 16.5936 5.59402 17.4775 6.40461L20.9316 3.10928C18.8103 1.1826 16.0496 0 12.7451 0C7.95824 0 3.82415 2.68406 1.81152 6.59056L5.7688 9.59359C6.76162 6.7102 9.50859 4.62403 12.7451 4.62403Z" fill="#F5F5F5"/>
</g>
<defs>
<clipPath id="clip0_1_1548">
<rect width="24" height="24" fill="white" transform="translate(0.506836)"/>
</clipPath>
</defs>
</svg>
